<svg xmlns="http://www.w3.org/2000/svg" xmlns:xlink="http://www.w3.org/1999/xlink" preserveAspectRatio="xMidYMid" width="163" height="45" viewBox="0 0 163 45">
  <defs>
    <style>
      .cls-1 {
        fill: #542e91;
        fill-rule: evenodd;
      }
    </style>
  </defs>
  <path d="M156.308,20.057 L156.308,-0.000 L163.000,-0.000 L163.000,6.891 L156.308,20.057 ZM142.096,-0.000 L149.083,-0.000 L149.083,35.798 L142.096,35.798 L142.096,-0.000 ZM129.560,33.284 C127.395,35.497 124.393,36.552 121.343,36.552 C115.733,36.552 112.289,33.586 112.289,28.709 C112.289,21.921 118.341,21.117 123.360,20.463 C127.887,19.860 129.560,19.458 129.560,17.346 C129.560,14.983 128.083,13.877 124.984,13.877 C121.786,13.877 120.457,14.882 119.965,17.849 L113.421,17.849 C113.814,12.066 117.849,9.100 125.181,9.100 C130.298,9.100 136.251,10.307 136.251,17.547 L136.251,28.759 C136.251,31.122 136.202,33.586 137.137,35.798 L130.052,35.798 C129.707,34.843 129.658,34.441 129.560,33.284 ZM129.511,23.178 C127.887,24.134 126.362,24.234 124.590,24.536 C122.179,24.938 119.473,25.240 119.473,28.407 C119.473,30.569 120.900,31.876 123.311,31.876 C126.952,31.876 129.511,29.815 129.511,26.094 L129.511,23.178 ZM97.194,31.022 C100.196,31.022 102.065,29.212 102.607,25.793 L109.348,25.793 C108.462,32.530 103.935,36.452 97.194,36.452 C89.371,36.452 84.254,31.122 84.254,23.027 C84.254,14.631 89.420,9.100 97.293,9.100 C104.083,9.100 108.610,12.871 109.200,18.905 L102.361,18.905 C101.869,16.039 100.048,14.430 97.342,14.430 C93.553,14.430 91.290,17.547 91.290,22.876 C91.290,28.055 93.455,31.022 97.194,31.022 ZM70.979,19.709 C75.555,20.664 80.869,21.871 80.869,27.754 C80.869,33.184 76.490,36.552 69.257,36.552 C62.910,36.552 57.448,33.988 57.350,27.351 L63.992,27.351 C64.238,30.469 66.206,31.675 69.404,31.675 C72.258,31.675 74.030,30.419 74.030,28.458 C74.030,26.246 71.963,25.843 68.322,24.988 C63.795,23.932 57.891,23.229 57.891,17.044 C57.891,11.966 61.925,9.100 69.011,9.100 C74.817,9.100 79.836,11.362 80.033,17.396 L73.538,17.396 C73.144,14.681 71.520,13.826 68.716,13.826 C66.256,13.826 64.779,14.782 64.779,16.390 C64.779,18.553 66.945,18.854 70.979,19.709 ZM46.240,33.284 C44.075,35.497 41.074,36.552 38.023,36.552 C32.414,36.552 28.969,33.586 28.969,28.709 C28.969,21.921 35.022,21.117 40.041,20.463 C44.567,19.860 46.240,19.458 46.240,17.346 C46.240,14.983 44.764,13.877 41.664,13.877 C38.466,13.877 37.138,14.882 36.645,17.849 L30.101,17.849 C30.495,12.066 34.529,9.100 41.861,9.100 C46.978,9.100 52.932,10.307 52.932,17.547 L52.932,28.759 C52.932,31.122 52.883,33.586 53.818,35.798 L46.732,35.798 C46.388,34.843 46.339,34.441 46.240,33.284 ZM46.191,23.178 C44.567,24.134 43.042,24.234 41.271,24.536 C38.859,24.938 36.153,25.240 36.153,28.407 C36.153,30.569 37.580,31.876 39.991,31.876 C43.633,31.876 46.191,29.815 46.191,26.094 L46.191,23.178 ZM14.761,36.452 C11.562,36.452 8.807,35.245 6.937,32.580 L6.937,44.999 L-0.001,44.999 L-0.001,9.854 L6.592,9.854 L6.592,13.072 C8.462,10.407 11.217,9.151 14.465,9.151 C21.305,9.151 25.782,14.631 25.782,22.977 C25.782,31.122 21.403,36.452 14.761,36.452 ZM12.743,14.882 C8.954,14.882 6.691,17.849 6.691,22.876 C6.691,27.905 8.954,30.871 12.792,30.871 C16.532,30.871 18.795,27.905 18.795,22.977 C18.795,17.899 16.482,14.882 12.743,14.882 Z" class="cls-1"/>
</svg>
